<?xml version="1.0" encoding="UTF-8" standalone="no"?>
<!DOCTYPE svg PUBLIC "-//W3C//DTD SVG 1.1//EN"
 "http://www.w3.org/Graphics/SVG/1.1/DTD/svg11.dtd">
<!-- Generated by graphviz version 2.38.0 (20140413.2041)
 -->
<!-- Title: snakemake_dag Pages: 1 -->
<svg width="254pt" height="332pt"
 viewBox="0.00 0.00 253.50 332.00" xmlns="http://www.w3.org/2000/svg" xmlns:xlink="http://www.w3.org/1999/xlink">
<g id="graph0" class="graph" transform="scale(1 1) rotate(0) translate(4 328)">
<title>snakemake_dag</title>
<polygon fill="white" stroke="none" points="-4,4 -4,-328 249.5,-328 249.5,4 -4,4"/>
<!-- 0 -->
<g id="node1" class="node"><title>0</title>
<path fill="none" stroke="#d85656" stroke-width="2" stroke-dasharray="5,2" d="M158,-36C158,-36 103,-36 103,-36 97,-36 91,-30 91,-24 91,-24 91,-12 91,-12 91,-6 97,-0 103,-0 103,-0 158,-0 158,-0 164,-0 170,-6 170,-12 170,-12 170,-24 170,-24 170,-30 164,-36 158,-36"/>
<text text-anchor="middle" x="130.5" y="-15.5" font-family="sans" font-size="10.00">make_report</text>
</g>
<!-- 1 -->
<g id="node2" class="node"><title>1</title>
<path fill="none" stroke="#56d89a" stroke-width="2" stroke-dasharray="5,2" d="M71,-108C71,-108 12,-108 12,-108 6,-108 0,-102 0,-96 0,-96 0,-84 0,-84 0,-78 6,-72 12,-72 12,-72 71,-72 71,-72 77,-72 83,-78 83,-84 83,-84 83,-96 83,-96 83,-102 77,-108 71,-108"/>
<text text-anchor="middle" x="41.5" y="-87.5" font-family="sans" font-size="10.00">kegg_meister</text>
</g>
<!-- 1&#45;&gt;0 -->
<g id="edge1" class="edge"><title>1&#45;&gt;0</title>
<path fill="none" stroke="grey" stroke-width="2" d="M63.5,-71.6966C74.7088,-62.8807 88.5021,-52.0321 100.654,-42.4742"/>
<polygon fill="grey" stroke="grey" stroke-width="2" points="103.057,-45.0375 108.753,-36.1043 98.7292,-39.5354 103.057,-45.0375"/>
</g>
<!-- 2 -->
<g id="node3" class="node"><title>2</title>
<path fill="none" stroke="#d6d856" stroke-width="2" stroke-dasharray="5,2" d="M122.5,-180C122.5,-180 92.5,-180 92.5,-180 86.5,-180 80.5,-174 80.5,-168 80.5,-168 80.5,-156 80.5,-156 80.5,-150 86.5,-144 92.5,-144 92.5,-144 122.5,-144 122.5,-144 128.5,-144 134.5,-150 134.5,-156 134.5,-156 134.5,-168 134.5,-168 134.5,-174 128.5,-180 122.5,-180"/>
<text text-anchor="middle" x="107.5" y="-159.5" font-family="sans" font-size="10.00">pm_ids</text>
</g>
<!-- 2&#45;&gt;0 -->
<g id="edge2" class="edge"><title>2&#45;&gt;0</title>
<path fill="none" stroke="grey" stroke-width="2" d="M110.274,-143.871C114.194,-119.67 121.395,-75.2108 126.063,-46.3932"/>
<polygon fill="grey" stroke="grey" stroke-width="2" points="129.572,-46.6203 127.716,-36.1893 122.662,-45.501 129.572,-46.6203"/>
</g>
<!-- 3 -->
<g id="node4" class="node"><title>3</title>
<path fill="none" stroke="#d89556" stroke-width="2" stroke-dasharray="5,2" d="M194.5,-180C194.5,-180 164.5,-180 164.5,-180 158.5,-180 152.5,-174 152.5,-168 152.5,-168 152.5,-156 152.5,-156 152.5,-150 158.5,-144 164.5,-144 164.5,-144 194.5,-144 194.5,-144 200.5,-144 206.5,-150 206.5,-156 206.5,-156 206.5,-168 206.5,-168 206.5,-174 200.5,-180 194.5,-180"/>
<text text-anchor="middle" x="179.5" y="-159.5" font-family="sans" font-size="10.00">id_conv</text>
</g>
<!-- 3&#45;&gt;0 -->
<g id="edge3" class="edge"><title>3&#45;&gt;0</title>
<path fill="none" stroke="grey" stroke-width="2" d="M173.589,-143.871C165.202,-119.564 149.761,-74.8187 139.821,-46.0132"/>
<polygon fill="grey" stroke="grey" stroke-width="2" points="143.002,-44.5006 136.432,-36.1893 136.385,-46.784 143.002,-44.5006"/>
</g>
<!-- 4 -->
<g id="node5" class="node"><title>4</title>
<path fill="none" stroke="#97d856" stroke-width="2" stroke-dasharray="5,2" d="M233.5,-108C233.5,-108 189.5,-108 189.5,-108 183.5,-108 177.5,-102 177.5,-96 177.5,-96 177.5,-84 177.5,-84 177.5,-78 183.5,-72 189.5,-72 189.5,-72 233.5,-72 233.5,-72 239.5,-72 245.5,-78 245.5,-84 245.5,-84 245.5,-96 245.5,-96 245.5,-102 239.5,-108 233.5,-108"/>
<text text-anchor="middle" x="211.5" y="-87.5" font-family="sans" font-size="10.00">sequences</text>
</g>
<!-- 3&#45;&gt;4 -->
<g id="edge8" class="edge"><title>3&#45;&gt;4</title>
<path fill="none" stroke="grey" stroke-width="2" d="M187.41,-143.697C191.053,-135.728 195.454,-126.1 199.494,-117.264"/>
<polygon fill="grey" stroke="grey" stroke-width="2" points="202.706,-118.654 203.681,-108.104 196.34,-115.744 202.706,-118.654"/>
</g>
<!-- 4&#45;&gt;0 -->
<g id="edge4" class="edge"><title>4&#45;&gt;0</title>
<path fill="none" stroke="grey" stroke-width="2" d="M191.478,-71.6966C181.374,-62.9655 168.964,-52.2405 157.982,-42.7503"/>
<polygon fill="grey" stroke="grey" stroke-width="2" points="160.147,-39.9948 150.292,-36.1043 155.57,-45.2912 160.147,-39.9948"/>
</g>
<!-- 5 -->
<g id="node6" class="node"><title>5</title>
<path fill="none" stroke="#59d856" stroke-width="2" stroke-dasharray="5,2" d="M124.5,-252C124.5,-252 90.5,-252 90.5,-252 84.5,-252 78.5,-246 78.5,-240 78.5,-240 78.5,-228 78.5,-228 78.5,-222 84.5,-216 90.5,-216 90.5,-216 124.5,-216 124.5,-216 130.5,-216 136.5,-222 136.5,-228 136.5,-228 136.5,-240 136.5,-240 136.5,-246 130.5,-252 124.5,-252"/>
<text text-anchor="middle" x="107.5" y="-231.5" font-family="sans" font-size="10.00">gene_ex</text>
</g>
<!-- 5&#45;&gt;1 -->
<g id="edge5" class="edge"><title>5&#45;&gt;1</title>
<path fill="none" stroke="grey" stroke-width="2" d="M93.9003,-215.59C86.5516,-205.588 77.7333,-192.553 71.5,-180 61.6188,-160.101 53.7574,-136.171 48.5649,-118.139"/>
<polygon fill="grey" stroke="grey" stroke-width="2" points="51.8738,-116.974 45.821,-108.278 45.1301,-118.85 51.8738,-116.974"/>
</g>
<!-- 5&#45;&gt;2 -->
<g id="edge6" class="edge"><title>5&#45;&gt;2</title>
<path fill="none" stroke="grey" stroke-width="2" d="M107.5,-215.697C107.5,-207.983 107.5,-198.712 107.5,-190.112"/>
<polygon fill="grey" stroke="grey" stroke-width="2" points="111,-190.104 107.5,-180.104 104,-190.104 111,-190.104"/>
</g>
<!-- 5&#45;&gt;3 -->
<g id="edge7" class="edge"><title>5&#45;&gt;3</title>
<path fill="none" stroke="grey" stroke-width="2" d="M125.298,-215.697C134.104,-207.135 144.882,-196.656 154.501,-187.304"/>
<polygon fill="grey" stroke="grey" stroke-width="2" points="157.177,-189.585 161.907,-180.104 152.297,-184.566 157.177,-189.585"/>
</g>
<!-- 6 -->
<g id="node7" class="node"><title>6</title>
<path fill="none" stroke="#56d8d8" stroke-width="2" stroke-dasharray="5,2" d="M122.5,-324C122.5,-324 92.5,-324 92.5,-324 86.5,-324 80.5,-318 80.5,-312 80.5,-312 80.5,-300 80.5,-300 80.5,-294 86.5,-288 92.5,-288 92.5,-288 122.5,-288 122.5,-288 128.5,-288 134.5,-294 134.5,-300 134.5,-300 134.5,-312 134.5,-312 134.5,-318 128.5,-324 122.5,-324"/>
<text text-anchor="middle" x="107.5" y="-303.5" font-family="sans" font-size="10.00">iconv</text>
</g>
<!-- 6&#45;&gt;5 -->
<g id="edge9" class="edge"><title>6&#45;&gt;5</title>
<path fill="none" stroke="grey" stroke-width="2" d="M107.5,-287.697C107.5,-279.983 107.5,-270.712 107.5,-262.112"/>
<polygon fill="grey" stroke="grey" stroke-width="2" points="111,-262.104 107.5,-252.104 104,-262.104 111,-262.104"/>
</g>
</g>
</svg>
